# xmcd
#
# Track frame offsets: 
#        182
#        16695
#        34100
#        48180
#        62287
#        77977
#        94335
#        113682
#        126530
#
# Disc length: 1797 seconds
#
# Revision: 1
# Processed by: cddbd v1.5.2PL0 Copyright (c) Steve Scherf et al.
# Submitted via: ExactAudioCopy v0.99pb5
#
DISCID=6a070309
DTITLE=Alfredo Vargas y su Orquesta - Con la voz de Ferdibu
DYEAR=1998
DGENRE=Salsa
TTITLE0=Arenque
TTITLE1=Quejas del alma
TTITLE2=Valento
TTITLE3=Fue
TTITLE4=El carretero va
TTITLE5=Tus ojos y yo
TTITLE6=Avisame pa enconderme
TTITLE7=Se quien eres
TTITLE8=Nos hacemo harina
EXTD=YEAR: 1998
EXTT0=
EXTT1=
EXTT2=
EXTT3=
EXTT4=
EXTT5=
EXTT6=
EXTT7=
EXTT8=
PLAYORDER=
